<?xml version="1.0" encoding="utf-8"?>
<!-- Generator: Adobe Illustrator 17.1.0, SVG Export Plug-In . SVG Version: 6.00 Build 0)  -->
<!DOCTYPE svg PUBLIC "-//W3C//DTD SVG 1.1//EN" "http://www.w3.org/Graphics/SVG/1.1/DTD/svg11.dtd">
<svg version="1.1" id="Layer_1" xmlns="http://www.w3.org/2000/svg" xmlns:xlink="http://www.w3.org/1999/xlink" x="0px" y="0px"
	 viewBox="0 0 162.9 162.9" enable-background="new 0 0 162.9 162.9" xml:space="preserve">
<path fill="#EB782E" d="M162.9,123.7c0,21.7-17.6,39.2-39.2,39.2H39.2C17.6,162.9,0,145.4,0,123.7V39.2C0,17.6,17.6,0,39.2,0h84.5
	c21.7,0,39.2,17.6,39.2,39.2V123.7z"/>
<g>
	<path fill="#FFFFFF" d="M106.5,108.2H81.2c-3.5,0-6.5-1.2-8.9-3.7c-2.5-2.5-3.7-5.5-3.7-9V82.9h37.9c3.5,0,6.5-1.3,9-3.8
		c2.5-2.5,3.8-5.5,3.8-9c0-3.5-1.3-6.5-3.8-9c-2.5-2.5-5.5-3.8-9-3.8H68.6V44.6c0-3.5-1.2-6.5-3.7-9c-2.5-2.5-5.5-3.8-9-3.8
		c-3.6,0-6.6,1.2-9.1,3.7c-2.5,2.5-3.7,5.5-3.7,9.1v50.9c0,10.5,3.7,19.5,11.2,27c7.5,7.5,16.5,11.2,27,11.2h25.2
		c3.5,0,6.5-1.2,9-3.8c2.5-2.5,3.8-5.5,3.8-9c0-3.5-1.3-6.5-3.8-9C113,109.4,110,108.2,106.5,108.2z"/>
</g>
</svg>
