<?xml version="1.0" encoding="utf-8"?>
<!-- Generator: Adobe Illustrator 17.1.0, SVG Export Plug-In . SVG Version: 6.00 Build 0)  -->
<!DOCTYPE svg PUBLIC "-//W3C//DTD SVG 1.1//EN" "http://www.w3.org/Graphics/SVG/1.1/DTD/svg11.dtd">
<svg version="1.1" id="Layer_1" xmlns="http://www.w3.org/2000/svg" xmlns:xlink="http://www.w3.org/1999/xlink" x="0px" y="0px"
	 viewBox="0 0 264 50" enable-background="new 0 0 264 50" xml:space="preserve">
<g>
	<path fill="none" d="M179.9,50C179.9,50,179.9,50,179.9,50l-32.5,0"/>
	<path fill="none" d="M147.4,0h32.5c0,0,0,0,0,0"/>
	<path fill="#E57222" d="M137.8,0H0v50h137.8c-6.3-6.5-10.1-15.3-10.1-25C127.6,15.3,131.5,6.5,137.8,0z"/>
	<path fill="#E57222" d="M199.2,0L199.2,0l55.6,21.3c2.1,0.8,4.2,1.6,4.2,3.7v0.4c0,2-2,2.8-4.2,3.5L199.3,50H264V0H199.2z"/>
	<path fill="#E57222" d="M133.8,25c0,10.5,5.4,19.7,13.6,25h32.5c0,0,0,0,0.1,0c8.1-5.3,13.5-14.5,13.5-25c0-10.4-5.4-19.6-13.5-25
		c0,0,0,0-0.1,0h-32.5C139.2,5.3,133.8,14.5,133.8,25z"/>
	<path opacity="0.3" fill="#FFFFFF" d="M179.9,0C179.9,0,179.9,0,179.9,0l19.4,0l0,0"/>
	<path opacity="0.3" fill="#FFFFFF" d="M137.8,0h9.6"/>
	<path fill="#E57222" d="M259,25.4V25c0-2.1-2.1-2.9-4.2-3.7L199.3,0l-0.1,0h-19.4c0,0,0,0,0.1,0c8.1,5.3,13.5,14.5,13.5,25
		c0,10.4-5.4,19.6-13.5,25c0,0,0,0-0.1,0h19.5l55.5-21.1C257,28.2,259,27.4,259,25.4z"/>
	<path opacity="0.3" fill="#FFFFFF" d="M259,25.4V25c0-2.1-2.1-2.9-4.2-3.7L199.3,0l-0.1,0h-19.4c0,0,0,0,0.1,0
		c8.1,5.3,13.5,14.5,13.5,25c0,10.4-5.4,19.6-13.5,25c0,0,0,0-0.1,0h19.5l55.5-21.1C257,28.2,259,27.4,259,25.4z"/>
	<path fill="#E57222" d="M147.4,0h-9.6c-6.3,6.5-10.2,15.3-10.2,25c0,9.7,3.9,18.5,10.1,25h9.6c-8.2-5.3-13.6-14.5-13.6-25"/>
</g>
</svg>
