<?xml version="1.0" encoding="utf-8"?>
<!-- Generator: Adobe Illustrator 17.1.0, SVG Export Plug-In . SVG Version: 6.00 Build 0)  -->
<!DOCTYPE svg PUBLIC "-//W3C//DTD SVG 1.1//EN" "http://www.w3.org/Graphics/SVG/1.1/DTD/svg11.dtd">
<svg version="1.1" id="Layer_1" xmlns="http://www.w3.org/2000/svg" xmlns:xlink="http://www.w3.org/1999/xlink" x="0px" y="0px"
	 viewBox="0 0 162.9 162.9" enable-background="new 0 0 162.9 162.9" xml:space="preserve">
<path fill="#EB782E" d="M162.9,123.7c0,21.7-17.6,39.2-39.2,39.2H39.2C17.6,162.9,0,145.4,0,123.7V39.2C0,17.6,17.6,0,39.2,0h84.5
	c21.7,0,39.2,17.6,39.2,39.2V123.7z"/>
<path fill-rule="evenodd" clip-rule="evenodd" fill="#FFFFFF" d="M50.7,119.1l30.4-20l4.5,6.8c6.4-7.6,11.1-16.8,13.3-27.3
	c1.5-6.9,1.7-13.7,0.9-20.4l-7.4,3.2L77.9,28.2l18.9-7.6c14,18.3,19.4,42.8,12.3,66.6c-7.1,23.8-25,41.3-46.8,48.9l-10.1-14.5
	L50.7,119.1z"/>
</svg>
