<?xml version="1.0" encoding="utf-8"?>
<!-- Generator: Adobe Illustrator 17.1.0, SVG Export Plug-In . SVG Version: 6.00 Build 0)  -->
<!DOCTYPE svg PUBLIC "-//W3C//DTD SVG 1.1//EN" "http://www.w3.org/Graphics/SVG/1.1/DTD/svg11.dtd">
<svg version="1.1" id="Colour" xmlns="http://www.w3.org/2000/svg" xmlns:xlink="http://www.w3.org/1999/xlink" x="0px" y="0px"
	 viewBox="3.1 53.6 100 54.8" enable-background="new 3.1 53.6 100 54.8" xml:space="preserve">
<path d="M99.9,78.2L41.8,55.9c-1.1-0.4-2-0.7-3-1l0,0l0,0c-2.6-0.8-5.4-1.3-8.2-1.3C15.4,53.6,3.1,65.9,3.1,81s12.3,27.4,27.4,27.4
	c2.9,0,5.6-0.4,8.2-1.3l0,0l0,0c1-0.3,2-0.6,3-1L99.9,84c1.7-0.6,3.2-1.2,3.2-2.7V81C103.1,79.4,101.5,78.8,99.9,78.2z"/>
<circle fill="#FFFFFF" cx="30.5" cy="81" r="22.7"/>
<g>
	<path d="M13.9,80c0-0.8-0.4-0.9-1.1-0.9c-0.5,0-1,0-1,0.7c0,0.4,0.2,0.5,0.6,0.6l1.2,0.3c0.7,0.2,1.1,0.5,1.1,1.2
		c0,1.1-0.8,1.4-1.8,1.4c-1.1,0-1.8-0.3-1.9-1.6h0.6c0,0.9,0.5,1,1.3,1c0.7,0,1.1-0.1,1.1-0.8c0-0.4-0.1-0.5-0.8-0.7l-1.1-0.3
		c-0.6-0.2-1-0.5-1-1.1c0-0.8,0.4-1.3,1.6-1.3c1.4,0,1.7,0.7,1.7,1.4L13.9,80L13.9,80z"/>
	<path d="M15.5,83.2v-4.6h0.6v4h2.3v0.6H15.5z"/>
	<path d="M19.1,83.2v-4.6h0.6v4.6H19.1z"/>
	<path d="M21.4,83.2h-0.6v-4.6h1.6c1,0,1.8,0.1,1.8,1.3c0,1.1-0.7,1.3-1.8,1.3h-0.6v-0.5h0.8c0.7,0,1-0.1,1-0.8c0-0.7-0.3-0.8-1-0.8
		h-1.2L21.4,83.2L21.4,83.2z"/>
	<path d="M27.6,80c0-0.8-0.4-0.9-1.1-0.9c-0.5,0-1,0-1,0.7c0,0.4,0.2,0.5,0.6,0.6l1.2,0.3c0.7,0.2,1.1,0.5,1.1,1.2
		c0,1.1-0.8,1.4-1.8,1.4c-1.1,0-1.8-0.3-1.9-1.6h0.6c0,0.9,0.5,1,1.3,1c0.7,0,1.1-0.1,1.1-0.8c0-0.4-0.1-0.5-0.8-0.7l-1.1-0.3
		c-0.6-0.2-1-0.5-1-1.1c0-0.8,0.4-1.3,1.6-1.3c1.4,0,1.7,0.7,1.7,1.4L27.6,80L27.6,80z"/>
	<path d="M28.5,78.6h3.7v0.6h-3.7V78.6z M30,83.2v-3.6h0.6v3.6H30z"/>
	<path d="M33.3,83.2h-0.6v-4.6h1.8c1,0,1.8,0.1,1.8,1.3c0,0.9-0.4,1.2-1.1,1.3l1.4,2h-0.8l-1.4-2h-0.7v-0.5h1c0.7,0,1-0.1,1-0.8
		c0-0.6-0.4-0.7-1-0.7h-1.4V83.2z"/>
	<path d="M37.9,82.7h2.8v0.5h-3.4v-4.6h3.3v0.6h-2.7L37.9,82.7L37.9,82.7z M38.3,80.6h2.1v0.5h-2.1V80.6z"/>
	<path d="M43.9,81.3c-0.2-0.7-0.5-1.4-0.8-2.1c-0.6,1.3-1.1,2.6-1.4,4h-0.6c0.5-1.5,1.1-3.1,1.7-4.6h0.7c0.7,1.5,1.3,3.1,1.7,4.6
		h-0.7c-0.1-0.5-0.3-0.9-0.4-1.3h-1.6l0.2-0.5L43.9,81.3C43.9,81.4,43.9,81.3,43.9,81.3z"/>
	<path d="M45.7,83.2v-4.6h0.9l1.3,2.5l1.3-2.5h0.9v4.6h-0.6v-3.8l-1.3,2.5h-0.6l-1.3-2.5v3.8H45.7z"/>
	<path fill="#EC6608" d="M57,83.2h-0.6v-4.6h1.8c1.4,0,2,0.6,2,2.3c0,1.4-0.4,2.3-2,2.3h-0.7v-0.5h0.7c1.1,0,1.4-0.4,1.4-1.8
		c0-1.4-0.3-1.8-1.5-1.8H57V83.2L57,83.2z"/>
	<path fill="#EC6608" d="M61.1,83.2v-4.6h0.6v4.6H61.1z"/>
	<path fill="#EC6608" d="M66.8,80h-0.6c-0.2-0.8-0.8-0.9-1.3-0.9c-1.2,0-1.7,0.6-1.7,1.8c0,1.3,0.5,1.9,1.6,1.9
		c1.2,0,1.5-0.7,1.5-1.4h-1.4v-0.5H67v0.3c0,1.3-0.5,2.2-2.1,2.2c-1.8,0-2.3-1.1-2.3-2.4s0.6-2.4,2.3-2.4C66,78.5,66.7,79.1,66.8,80
		z"/>
	<path fill="#EC6608" d="M67.8,83.2v-4.6h0.6v4.6H67.8z"/>
	<path fill="#EC6608" d="M69.1,78.6h3.7v0.6h-3.7V78.6z M70.6,83.2v-3.6h0.6v3.6H70.6z"/>
	<path fill="#EC6608" d="M75.1,81.3c-0.2-0.7-0.5-1.4-0.8-2.1c-0.6,1.3-1.1,2.6-1.4,4h-0.6c0.5-1.5,1.1-3.1,1.7-4.6h0.7
		c0.7,1.5,1.3,3.1,1.7,4.6h-0.7c-0.1-0.5-0.3-0.9-0.4-1.3h-1.5l0.2-0.5L75.1,81.3L75.1,81.3L75.1,81.3z"/>
	<path fill="#EC6608" d="M77,83.2v-4.6h0.6v4h2.3v0.6H77z"/>
</g>
</svg>
