<?xml version="1.0" encoding="utf-8"?>
<!-- Generator: Adobe Illustrator 17.1.0, SVG Export Plug-In . SVG Version: 6.00 Build 0)  -->
<!DOCTYPE svg PUBLIC "-//W3C//DTD SVG 1.1//EN" "http://www.w3.org/Graphics/SVG/1.1/DTD/svg11.dtd">
<svg version="1.1" id="Layer_1" xmlns="http://www.w3.org/2000/svg" xmlns:xlink="http://www.w3.org/1999/xlink" x="0px" y="0px"
	 viewBox="0 0 162.9 162.9" enable-background="new 0 0 162.9 162.9" xml:space="preserve">
<path fill="#EB782E" d="M162.9,123.7c0,21.7-17.6,39.2-39.2,39.2H39.2C17.6,162.9,0,145.4,0,123.7V39.2C0,17.6,17.6,0,39.2,0h84.5
	c21.7,0,39.2,17.6,39.2,39.2V123.7z"/>
<g>
	<g>
		<defs>
			<path id="SVGID_1_" d="M81.5,75.4c-0.5,0-1,0-1.5,0c-9.6,0-19,0.2-28.2,0.6c-6.8,0-12.3,5.5-12.3,12.2c-0.4,5.3-0.6,10.6-0.6,16
				c0,5.3,0.2,10.6,0.6,16c0,6.7,5.5,12.2,12.3,12.2c9.7,0.4,19.6,0.6,29.8,0.6c10.1,0,20-0.2,29.7-0.6c6.8,0,12.3-5.5,12.3-12.2
				c0.4-5.3,0.6-10.7,0.6-16c0-5.3-0.2-10.6-0.6-16c0-6.7-5.5-12.2-12.3-12.2c-9.2-0.4-18.6-0.6-28.2-0.6
				C82.5,75.4,82,75.4,81.5,75.4"/>
		</defs>
		<use xlink:href="#SVGID_1_"  overflow="visible" fill="#F7F7F7"/>
		<clipPath id="SVGID_2_">
			<use xlink:href="#SVGID_1_"  overflow="visible"/>
		</clipPath>
		<rect x="38.8" y="75.4" clip-path="url(#SVGID_2_)" fill="#F7F7F7" width="85.3" height="57.4"/>
	</g>
	<g>
		<g>
			<defs>
				<polygon id="SVGID_3_" points="65.5,30.6 61.9,45.7 61.5,45.7 57.7,30.6 51.9,30.6 58.8,53.3 58.8,68.3 64.6,68.3 64.6,52.6 
					71.4,30.6 				"/>
			</defs>
			<use xlink:href="#SVGID_3_"  overflow="visible" fill="#FFFFFF"/>
			<clipPath id="SVGID_4_">
				<use xlink:href="#SVGID_3_"  overflow="visible"/>
			</clipPath>
			<rect x="51.9" y="30.6" clip-path="url(#SVGID_4_)" fill="#FFFFFF" width="19.5" height="37.7"/>
		</g>
		<g>
			<defs>
				<path id="SVGID_5_" d="M77,63.6c-0.4-0.4-0.6-1-0.6-1.8V46.6c0-0.6,0.2-1.1,0.6-1.5c0.4-0.4,0.9-0.6,1.5-0.6
					c0.7,0,1.2,0.2,1.7,0.6c0.4,0.4,0.6,0.9,0.6,1.5v15.2c0,0.7-0.2,1.3-0.6,1.8c-0.4,0.4-1,0.6-1.7,0.6C77.9,64.2,77.4,64,77,63.6
					 M73.2,41.7c-1.4,1.3-2.1,3-2.1,5.1l0,14.4c0,2.4,0.7,4.2,2,5.6c1.4,1.4,3.2,2.1,5.4,2.1c2.3,0,4.2-0.7,5.5-2
					c1.3-1.4,2-3.2,2-5.6V47c0-2.1-0.7-3.9-2-5.2c-1.4-1.3-3.1-2-5.3-2C76.5,39.8,74.6,40.4,73.2,41.7"/>
			</defs>
			<use xlink:href="#SVGID_5_"  overflow="visible" fill="#FFFFFF"/>
			<clipPath id="SVGID_6_">
				<use xlink:href="#SVGID_5_"  overflow="visible"/>
			</clipPath>
			<rect x="71.1" y="39.8" clip-path="url(#SVGID_6_)" fill="#FFFFFF" width="15" height="29.2"/>
		</g>
		<g>
			<defs>
				<path id="SVGID_7_" d="M100.1,40.5v21.1c-0.5,0.6-1,1.1-1.6,1.5c-0.6,0.4-1.1,0.6-1.4,0.6c-0.5,0-0.8-0.1-1-0.4
					c-0.2-0.3-0.3-0.8-0.3-1.4V40.5h-5.2v23.3c0,1.7,0.3,2.9,0.9,3.7c0.6,0.8,1.5,1.2,2.7,1.2c1,0,2-0.3,3-0.9c1-0.6,2-1.5,3-2.6
					v3.1h5.2V40.5H100.1z"/>
			</defs>
			<use xlink:href="#SVGID_7_"  overflow="visible" fill="#FFFFFF"/>
			<clipPath id="SVGID_8_">
				<use xlink:href="#SVGID_7_"  overflow="visible"/>
			</clipPath>
			<rect x="90.6" y="40.5" clip-path="url(#SVGID_8_)" fill="#FFFFFF" width="14.8" height="28.2"/>
		</g>
	</g>
	<path fill="#EB782E" d="M63.3,84.7H45.4v5.5h6v32.2h5.8V90.2h6V84.7z M72.8,115.8c-0.5,0.6-1,1.1-1.6,1.5c-0.6,0.4-1.1,0.6-1.4,0.6
		c-0.5,0-0.8-0.1-1-0.4c-0.2-0.3-0.3-0.8-0.3-1.4V94.6h-5.2v23.3c0,1.7,0.3,2.9,0.9,3.7c0.6,0.8,1.5,1.2,2.7,1.2c1,0,2-0.3,3-0.9
		c1-0.6,2-1.5,3-2.6v3.1H78V94.6h-5.2V115.8z M92.9,94.3c-0.8,0-1.6,0.2-2.4,0.7c-0.8,0.4-1.5,1.1-2.2,1.9V84.7h-5.2v37.7h5.2v-2.1
		c0.7,0.8,1.4,1.5,2.2,1.9c0.8,0.4,1.7,0.6,2.7,0.6c1.5,0,2.7-0.5,3.5-1.6c0.8-1.1,1.2-2.6,1.2-4.5v-15.4c0-2.3-0.4-4-1.3-5.2
		C95.8,94.9,94.5,94.3,92.9,94.3 M92.6,115.9c0,0.9-0.1,1.5-0.4,1.9c-0.3,0.4-0.8,0.6-1.4,0.6c-0.4,0-0.9-0.1-1.2-0.3
		c-0.4-0.2-0.8-0.5-1.2-1V99.8c0.4-0.4,0.7-0.7,1.1-0.8c0.4-0.2,0.7-0.3,1.1-0.3c0.7,0,1.2,0.2,1.6,0.7c0.4,0.5,0.6,1.2,0.6,2.1
		V115.9z M117.1,109.2v-7.1c0-2.6-0.6-4.7-1.9-6.1c-1.3-1.4-3.1-2.1-5.5-2.1c-2.3,0-4.2,0.8-5.7,2.3c-1.5,1.5-2.2,3.5-2.2,5.9v12.5
		c0,2.7,0.7,4.8,2,6.3c1.3,1.5,3.2,2.3,5.5,2.3c2.6,0,4.5-0.7,5.8-2.2c1.3-1.4,1.9-3.6,1.9-6.4v-2.1h-5.3v1.9c0,1.6-0.2,2.7-0.5,3.2
		c-0.3,0.5-0.9,0.7-1.8,0.7c-0.8,0-1.4-0.3-1.7-0.8c-0.3-0.6-0.5-1.6-0.5-3v-5.3H117.1z M107.2,102.1c0-1.2,0.2-2,0.5-2.5
		c0.4-0.5,0.9-0.8,1.8-0.8c0.8,0,1.4,0.3,1.7,0.8c0.4,0.5,0.5,1.3,0.5,2.5v2.8h-4.6V102.1z"/>
</g>
</svg>
