<?xml version="1.0" encoding="utf-8"?>
<!-- Generator: Adobe Illustrator 17.1.0, SVG Export Plug-In . SVG Version: 6.00 Build 0)  -->
<!DOCTYPE svg PUBLIC "-//W3C//DTD SVG 1.1//EN" "http://www.w3.org/Graphics/SVG/1.1/DTD/svg11.dtd">
<svg version="1.1" id="Layer_1" xmlns="http://www.w3.org/2000/svg" xmlns:xlink="http://www.w3.org/1999/xlink" x="0px" y="0px"
	 viewBox="0 0 162.9 162.9" enable-background="new 0 0 162.9 162.9" xml:space="preserve">
<path fill="#EB782E" d="M162.9,123.7c0,21.7-17.6,39.2-39.2,39.2H39.2C17.6,162.9,0,145.4,0,123.7V39.2C0,17.6,17.6,0,39.2,0h84.5
	c21.7,0,39.2,17.6,39.2,39.2V123.7z"/>
<g>
	<path fill="#FFFFFF" d="M86,133.9H64.9V82.8H54.3V65.1h10.6V54.6c0-14.4,6-22.9,22.9-22.9h14.1v17.6h-8.8c-6.6,0-7,2.5-7,7.1l0,8.8
		h16l-1.9,17.6H86V133.9z"/>
</g>
</svg>
