<?xml version="1.0" encoding="utf-8"?>
<!-- Generator: Adobe Illustrator 17.1.0, SVG Export Plug-In . SVG Version: 6.00 Build 0)  -->
<!DOCTYPE svg PUBLIC "-//W3C//DTD SVG 1.1//EN" "http://www.w3.org/Graphics/SVG/1.1/DTD/svg11.dtd">
<svg version="1.1" id="Layer_1" xmlns="http://www.w3.org/2000/svg" xmlns:xlink="http://www.w3.org/1999/xlink" x="0px" y="0px"
	 viewBox="0 0 162.9 162.9" enable-background="new 0 0 162.9 162.9" xml:space="preserve">
<path fill="#EB782E" d="M162.9,123.7c0,21.7-17.6,39.2-39.2,39.2H39.2C17.6,162.9,0,145.4,0,123.7V39.2C0,17.6,17.6,0,39.2,0h84.5
	c21.7,0,39.2,17.6,39.2,39.2V123.7z"/>
<path fill="#FFFFFF" d="M81.2,27.9C62.8,27.9,48,42.8,48,61.1c0,15.7,33.2,74.3,33.2,74.3s33.2-58.6,33.2-74.3
	C114.4,42.8,99.5,27.9,81.2,27.9z M81.2,74.9c-8.5,0-15.4-6.9-15.4-15.4c0-8.5,6.9-15.4,15.4-15.4S96.6,51,96.6,59.5
	C96.6,68,89.7,74.9,81.2,74.9z"/>
</svg>
