<?xml version="1.0" encoding="utf-8"?>
<!-- Generator: Adobe Illustrator 17.1.0, SVG Export Plug-In . SVG Version: 6.00 Build 0)  -->
<!DOCTYPE svg PUBLIC "-//W3C//DTD SVG 1.1//EN" "http://www.w3.org/Graphics/SVG/1.1/DTD/svg11.dtd">
<svg version="1.1" id="Layer_1" xmlns="http://www.w3.org/2000/svg" xmlns:xlink="http://www.w3.org/1999/xlink" x="0px" y="0px"
	 viewBox="0 21.6 300 56.8" enable-background="new 0 21.6 300 56.8" xml:space="preserve">
<g>
	<path fill="none" d="M204.4,78.4L204.4,78.4h-36.9"/>
	<path fill="none" d="M167.5,21.6h36.9l0,0"/>
	<path fill="#DD5D02" d="M156.6,21.6H0v56.8h156.6C149.4,71,145.1,61,145.1,50C145,39,149.4,29,156.6,21.6z"/>
	<path fill="#DD5D02" d="M226.4,21.6L226.4,21.6l63.2,24.2c2.4,0.9,4.8,1.8,4.8,4.2v0.5c0,2.3-2.3,3.2-4.8,4l-63.1,24H300V21.6
		H226.4z"/>
	<path fill="#DD5D02" d="M152,50c0,11.9,6.1,22.4,15.5,28.4h36.9c0,0,0,0,0.1,0c9.2-6,15.3-16.5,15.3-28.4
		c0-11.8-6.1-22.3-15.3-28.4c0,0,0,0-0.1,0h-36.9C158.2,27.6,152,38.1,152,50z"/>
	<path opacity="0.3" fill="#FFFFFF" enable-background="new    " d="M204.4,21.6L204.4,21.6h22l0,0"/>
	<path opacity="0.3" fill="#FFFFFF" enable-background="new    " d="M156.6,21.6h10.9"/>
	<path fill="#E57222" d="M294.3,50.5V50c0-2.4-2.4-3.3-4.8-4.2l-63.1-24.2h-0.1h-22c0,0,0,0,0.1,0c9.2,6,15.3,16.5,15.3,28.4
		c0,11.8-6.1,22.3-15.3,28.4c0,0,0,0-0.1,0h22.2l63.1-24C292,53.6,294.3,52.7,294.3,50.5z"/>
	<path opacity="0.3" fill="#FFFFFF" enable-background="new    " d="M294.3,50.5V50c0-2.4-2.4-3.3-4.8-4.2l-63.1-24.2h-0.1h-22
		c0,0,0,0,0.1,0c9.2,6,15.3,16.5,15.3,28.4c0,11.8-6.1,22.3-15.3,28.4c0,0,0,0-0.1,0h22.2l63.1-24C292,53.6,294.3,52.7,294.3,50.5z"
		/>
	<path fill="#DD5D02" d="M167.5,21.6h-10.9C149.4,29,145,39,145,50s4.4,21,11.5,28.4h10.9c-9.3-6-15.5-16.5-15.5-28.4"/>
</g>
</svg>
